<?xml version="1.0" encoding="UTF-8" standalone="no"?>
<!DOCTYPE svg PUBLIC "-//W3C//DTD SVG 1.1//EN"
 "http://www.w3.org/Graphics/SVG/1.1/DTD/svg11.dtd">
<!-- Generated by graphviz version 12.1.2 (0)
 -->
<!-- Pages: 1 -->
<svg width="519pt" height="118pt"
 viewBox="0.00 0.00 519.12 118.00" xmlns="http://www.w3.org/2000/svg" xmlns:xlink="http://www.w3.org/1999/xlink">
<g id="graph0" class="graph" transform="scale(1 1) rotate(0) translate(4 114)">
<polygon fill="white" stroke="none" points="-4,4 -4,-114 515.12,-114 515.12,4 -4,4"/>
<!-- pointer1 -->
<g id="node1" class="node">
<title>pointer1</title>
<polygon fill="lightgrey" stroke="black" points="82.5,-0.5 82.5,-36.5 228.5,-36.5 228.5,-0.5 82.5,-0.5"/>
<text text-anchor="middle" x="113.75" y="-13.45" font-family="Times,serif" font-size="14.00">ast.Ident</text>
<polyline fill="none" stroke="black" points="145,-0.5 145,-36.5"/>
<text text-anchor="middle" x="186.75" y="-13.45" font-family="Times,serif" font-size="14.00">0x00004400</text>
</g>
<!-- pointer2 -->
<g id="node2" class="node">
<title>pointer2</title>
<polygon fill="lightgrey" stroke="black" points="365.88,-0.5 365.88,-36.5 511.12,-36.5 511.12,-0.5 365.88,-0.5"/>
<text text-anchor="middle" x="397.12" y="-13.45" font-family="Times,serif" font-size="14.00">ast.Ident</text>
<polyline fill="none" stroke="black" points="428.38,-0.5 428.38,-36.5"/>
<text text-anchor="middle" x="469.75" y="-13.45" font-family="Times,serif" font-size="14.00">0x0c887700</text>
</g>
<!-- defskey -->
<g id="node3" class="node">
<title>defskey</title>
<polygon fill="lightgrey" stroke="black" points="0,-73.5 0,-109.5 137,-109.5 137,-73.5 0,-73.5"/>
<text text-anchor="middle" x="33.88" y="-86.45" font-family="Times,serif" font-size="14.00">Defs Key</text>
<polyline fill="none" stroke="black" points="67.75,-73.5 67.75,-109.5"/>
<text text-anchor="middle" x="102.38" y="-86.45" font-family="Times,serif" font-size="14.00">*ast.Ident</text>
</g>
<!-- defskey&#45;&gt;pointer1 -->
<g id="edge2" class="edge">
<title>defskey:s&#45;&gt;pointer1:n</title>
<path fill="none" stroke="black" d="M102.38,-73C102.38,-37.01 168.13,-68.28 183.55,-48.06"/>
<polygon fill="black" stroke="black" points="186.91,-49.03 186.33,-38.45 180.18,-47.08 186.91,-49.03"/>
</g>
<!-- useskey -->
<g id="node4" class="node">
<title>useskey</title>
<polygon fill="lightgrey" stroke="black" points="366.62,-73.5 366.62,-109.5 504.38,-109.5 504.38,-73.5 366.62,-73.5"/>
<text text-anchor="middle" x="400.88" y="-86.45" font-family="Times,serif" font-size="14.00">Uses Key</text>
<polyline fill="none" stroke="black" points="435.12,-73.5 435.12,-109.5"/>
<text text-anchor="middle" x="469.75" y="-86.45" font-family="Times,serif" font-size="14.00">*ast.Ident</text>
</g>
<!-- useskey&#45;&gt;pointer2 -->
<g id="edge3" class="edge">
<title>useskey:f1&#45;&gt;pointer2:f1</title>
<path fill="none" stroke="black" d="M469.75,-73C469.75,-61.62 469.75,-56.32 469.75,-48.45"/>
<polygon fill="black" stroke="black" points="473.25,-48.51 469.75,-38.51 466.25,-48.51 473.25,-48.51"/>
</g>
<!-- astfuncdeclname -->
<g id="node5" class="node">
<title>astfuncdeclname</title>
<polygon fill="lightgrey" stroke="black" points="154.88,-73.5 154.88,-109.5 348.12,-109.5 348.12,-73.5 154.88,-73.5"/>
<text text-anchor="middle" x="216.88" y="-86.45" font-family="Times,serif" font-size="14.00">ast.FuncDecl.Name</text>
<polyline fill="none" stroke="black" points="278.88,-73.5 278.88,-109.5"/>
<text text-anchor="middle" x="313.5" y="-86.45" font-family="Times,serif" font-size="14.00">*ast.Ident</text>
</g>
<!-- astfuncdeclname&#45;&gt;pointer1 -->
<g id="edge1" class="edge">
<title>astfuncdeclname:f1&#45;&gt;pointer1:e</title>
<path fill="none" stroke="black" d="M313.5,-73C313.5,-32.32 280.5,-20.47 240.84,-18.74"/>
<polygon fill="black" stroke="black" points="241.08,-15.24 231.01,-18.53 240.94,-22.24 241.08,-15.24"/>
</g>
</g>
</svg>
