<?xml version="1.0" encoding="UTF-8" standalone="no"?>
<!DOCTYPE svg PUBLIC "-//W3C//DTD SVG 1.1//EN"
 "http://www.w3.org/Graphics/SVG/1.1/DTD/svg11.dtd">
<!-- Generated by graphviz version 12.1.2 (0)
 -->
<!-- Pages: 1 -->
<svg width="334pt" height="144pt"
 viewBox="0.00 0.00 333.50 144.00" xmlns="http://www.w3.org/2000/svg" xmlns:xlink="http://www.w3.org/1999/xlink">
<g id="graph0" class="graph" transform="scale(1 1) rotate(0) translate(4 140)">
<polygon fill="white" stroke="none" points="-4,4 -4,-140 329.5,-140 329.5,4 -4,4"/>
<!-- types_object -->
<g id="node1" class="node">
<title>types_object</title>
<polygon fill="lightgrey" stroke="black" points="27.75,-0.5 27.75,-49.5 197.75,-49.5 197.75,-0.5 27.75,-0.5"/>
<text text-anchor="middle" x="112.75" y="-32.2" font-family="Times,serif" font-size="14.00">types.Object (Interface)</text>
<polyline fill="none" stroke="black" points="27.75,-25 197.75,-25"/>
<text text-anchor="middle" x="65.38" y="-7.7" font-family="Times,serif" font-size="14.00">types.Func</text>
<polyline fill="none" stroke="black" points="103,-0.5 103,-25"/>
<text text-anchor="middle" x="150.38" y="-7.7" font-family="Times,serif" font-size="14.00">0x00f0bb1022</text>
</g>
<!-- defs -->
<g id="node2" class="node">
<title>defs</title>
<polygon fill="lightgrey" stroke="black" points="0,-86.5 0,-135.5 153.5,-135.5 153.5,-86.5 0,-86.5"/>
<text text-anchor="middle" x="76.75" y="-118.2" font-family="Times,serif" font-size="14.00">types.Info.Defs (Map)</text>
<polyline fill="none" stroke="black" points="0,-111 153.5,-111"/>
<text text-anchor="middle" x="34.62" y="-93.7" font-family="Times,serif" font-size="14.00">*ast.Ident</text>
<polyline fill="none" stroke="black" points="69.25,-86.5 69.25,-111"/>
<text text-anchor="middle" x="111.38" y="-93.7" font-family="Times,serif" font-size="14.00">types.Object</text>
</g>
<!-- types_object&#45;&gt;defs -->
<g id="edge1" class="edge">
<title>types_object:e&#45;&gt;defs:f2</title>
<path fill="none" stroke="black" d="M198.75,-12.75C215.31,-12.75 207.12,-36.34 197.75,-50 176.89,-80.41 125.11,-52.49 113.65,-74.78"/>
<polygon fill="black" stroke="black" points="110.23,-74.02 111.68,-84.52 117.09,-75.41 110.23,-74.02"/>
</g>
<!-- uses -->
<g id="node3" class="node">
<title>uses</title>
<polygon fill="lightgrey" stroke="black" points="172,-86.5 172,-135.5 325.5,-135.5 325.5,-86.5 172,-86.5"/>
<text text-anchor="middle" x="248.75" y="-118.2" font-family="Times,serif" font-size="14.00">types.Info.Uses (Map)</text>
<polyline fill="none" stroke="black" points="172,-111 325.5,-111"/>
<text text-anchor="middle" x="206.62" y="-93.7" font-family="Times,serif" font-size="14.00">*ast.Ident</text>
<polyline fill="none" stroke="black" points="241.25,-86.5 241.25,-111"/>
<text text-anchor="middle" x="283.38" y="-93.7" font-family="Times,serif" font-size="14.00">types.Object</text>
</g>
<!-- types_object&#45;&gt;uses -->
<g id="edge2" class="edge">
<title>types_object:e&#45;&gt;uses:f2</title>
<path fill="none" stroke="black" d="M198.75,-12.75C244.51,-12.75 277.69,-32.64 282.71,-74.55"/>
<polygon fill="black" stroke="black" points="279.22,-74.71 283.29,-84.49 286.21,-74.3 279.22,-74.71"/>
</g>
</g>
</svg>
