<?xml version="1.0" encoding="UTF-8" standalone="no"?>
<!DOCTYPE svg PUBLIC "-//W3C//DTD SVG 1.1//EN"
 "http://www.w3.org/Graphics/SVG/1.1/DTD/svg11.dtd">
<!-- Generated by graphviz version 12.1.2 (0)
 -->
<!-- Pages: 1 -->
<svg width="357pt" height="157pt"
 viewBox="0.00 0.00 356.73 157.49" xmlns="http://www.w3.org/2000/svg" xmlns:xlink="http://www.w3.org/1999/xlink">
<g id="graph0" class="graph" transform="scale(1 1) rotate(0) translate(4 153.49)">
<polygon fill="white" stroke="none" points="-4,4 -4,-153.49 352.73,-153.49 352.73,4 -4,4"/>
<!-- types_object -->
<g id="node1" class="node">
<title>types_object</title>
<polygon fill="lightgrey" stroke="black" points="57.12,-99.99 57.12,-148.99 227.12,-148.99 227.12,-99.99 57.12,-99.99"/>
<text text-anchor="middle" x="142.12" y="-131.69" font-family="Times,serif" font-size="14.00">types.Object (Interface)</text>
<polyline fill="none" stroke="black" points="57.12,-124.49 227.12,-124.49"/>
<text text-anchor="middle" x="94.75" y="-107.19" font-family="Times,serif" font-size="14.00">types.Func</text>
<polyline fill="none" stroke="black" points="132.38,-99.99 132.38,-124.49"/>
<text text-anchor="middle" x="179.75" y="-107.19" font-family="Times,serif" font-size="14.00">0x00f0bb1022</text>
</g>
<!-- defs -->
<g id="node2" class="node">
<title>defs</title>
<polygon fill="lightgrey" stroke="black" points="0,-13.99 0,-62.99 160.25,-62.99 160.25,-13.99 0,-13.99"/>
<text text-anchor="middle" x="80.12" y="-45.69" font-family="Times,serif" font-size="14.00">types.Info.Defs (Map)</text>
<polyline fill="none" stroke="black" points="0,-38.49 160.25,-38.49"/>
<text text-anchor="middle" x="34.62" y="-21.19" font-family="Times,serif" font-size="14.00">*ast.Ident</text>
<polyline fill="none" stroke="black" points="69.25,-13.99 69.25,-38.49"/>
<text text-anchor="middle" x="114.75" y="-21.19" font-family="Times,serif" font-size="14.00">*types.Object</text>
</g>
<!-- defs&#45;&gt;types_object -->
<g id="edge1" class="edge">
<title>defs:f2&#45;&gt;types_object:s</title>
<path fill="none" stroke="black" d="M161.25,-26.24C169.71,-26.24 167.05,-55.29 169.12,-63.49 172.1,-75.24 176.36,-80.12 178.47,-88.3"/>
<polygon fill="black" stroke="black" points="174.96,-88.45 179.58,-97.99 181.92,-87.66 174.96,-88.45"/>
</g>
<!-- uses -->
<g id="node3" class="node">
<title>uses</title>
<polygon fill="lightgrey" stroke="black" points="178,-13.99 178,-62.99 338.25,-62.99 338.25,-13.99 178,-13.99"/>
<text text-anchor="middle" x="258.12" y="-45.69" font-family="Times,serif" font-size="14.00">types.Info.Uses (Map)</text>
<polyline fill="none" stroke="black" points="178,-38.49 338.25,-38.49"/>
<text text-anchor="middle" x="212.62" y="-21.19" font-family="Times,serif" font-size="14.00">*ast.Ident</text>
<polyline fill="none" stroke="black" points="247.25,-13.99 247.25,-38.49"/>
<text text-anchor="middle" x="292.75" y="-21.19" font-family="Times,serif" font-size="14.00">*types.Object</text>
</g>
<!-- uses&#45;&gt;types_object -->
<g id="edge2" class="edge">
<title>uses:f2&#45;&gt;types_object:e</title>
<path fill="none" stroke="black" d="M292.75,-12.99C292.75,7.23 324.11,0.47 338.25,-13.99 353.63,-29.72 350.25,-45.05 338.25,-63.49 311.22,-105.02 285.73,-111.44 239.62,-112.16"/>
<polygon fill="black" stroke="black" points="239.61,-108.66 229.64,-112.23 239.66,-115.66 239.61,-108.66"/>
</g>
</g>
</svg>
