<?xml version="1.0" encoding="UTF-8" standalone="no"?>
<!DOCTYPE svg PUBLIC "-//W3C//DTD SVG 1.1//EN"
 "http://www.w3.org/Graphics/SVG/1.1/DTD/svg11.dtd">
<!-- Generated by graphviz version 12.2.1 (0)
 -->
<!-- Pages: 1 -->
<svg width="438pt" height="224pt"
 viewBox="0.00 0.00 437.88 224.00" xmlns="http://www.w3.org/2000/svg" xmlns:xlink="http://www.w3.org/1999/xlink">
<g id="graph0" class="graph" transform="scale(1 1) rotate(0) translate(4 220)">
<polygon fill="white" stroke="none" points="-4,4 -4,-220 433.88,-220 433.88,4 -4,4"/>
<!-- func_main -->
<g id="node1" class="node">
<title>func_main</title>
<polygon fill="lightgrey" stroke="black" points="0,-179.5 0,-215.5 210,-215.5 210,-179.5 0,-179.5"/>
<text text-anchor="middle" x="40.25" y="-192.45" font-family="Times,serif" font-size="14.00">func main()</text>
<polyline fill="none" stroke="black" points="80.5,-179.5 80.5,-215.5"/>
<text text-anchor="middle" x="111.38" y="-192.45" font-family="Times,serif" font-size="14.00">uncalled</text>
<polyline fill="none" stroke="black" points="142.25,-179.5 142.25,-215.5"/>
<text text-anchor="middle" x="176.12" y="-192.45" font-family="Times,serif" font-size="14.00">reachable</text>
</g>
<!-- func_a -->
<g id="node2" class="node">
<title>func_a</title>
<polygon fill="lightgrey" stroke="black" points="11.62,-90 11.62,-126 186.38,-126 186.38,-90 11.62,-90"/>
<text text-anchor="middle" x="41" y="-102.95" font-family="Times,serif" font-size="14.00">func a()</text>
<polyline fill="none" stroke="black" points="70.38,-90 70.38,-126"/>
<text text-anchor="middle" x="94.5" y="-102.95" font-family="Times,serif" font-size="14.00">called</text>
<polyline fill="none" stroke="black" points="118.62,-90 118.62,-126"/>
<text text-anchor="middle" x="152.5" y="-102.95" font-family="Times,serif" font-size="14.00">reachable</text>
</g>
<!-- func_main&#45;&gt;func_a -->
<g id="edge1" class="edge">
<title>func_main:f0&#45;&gt;func_a:f0</title>
<path fill="none" stroke="black" d="M40.25,-179C40.25,-160.04 40.75,-152.64 40.93,-138.01"/>
<polygon fill="black" stroke="black" points="44.43,-138.03 40.99,-128.01 37.43,-137.99 44.43,-138.03"/>
<text text-anchor="middle" x="53.19" y="-147.7" font-family="Times,serif" font-size="14.00">calls</text>
</g>
<!-- func_b -->
<g id="node3" class="node">
<title>func_b</title>
<polygon fill="lightgrey" stroke="black" points="11.25,-0.5 11.25,-36.5 186.75,-36.5 186.75,-0.5 11.25,-0.5"/>
<text text-anchor="middle" x="41" y="-13.45" font-family="Times,serif" font-size="14.00">func b()</text>
<polyline fill="none" stroke="black" points="70.75,-0.5 70.75,-36.5"/>
<text text-anchor="middle" x="94.88" y="-13.45" font-family="Times,serif" font-size="14.00">called</text>
<polyline fill="none" stroke="black" points="119,-0.5 119,-36.5"/>
<text text-anchor="middle" x="152.88" y="-13.45" font-family="Times,serif" font-size="14.00">reachable</text>
</g>
<!-- func_a&#45;&gt;func_b -->
<g id="edge2" class="edge">
<title>func_a:f0&#45;&gt;func_b:f0</title>
<path fill="none" stroke="black" d="M41,-89.5C41,-70.54 41,-63.14 41,-48.51"/>
<polygon fill="black" stroke="black" points="44.5,-48.51 41,-38.51 37.5,-48.51 44.5,-48.51"/>
<text text-anchor="middle" x="53.38" y="-58.2" font-family="Times,serif" font-size="14.00">calls</text>
</g>
<!-- func_c -->
<g id="node4" class="node">
<title>func_c</title>
<polygon fill="lightgrey" stroke="black" points="228.12,-179.5 228.12,-215.5 429.88,-215.5 429.88,-179.5 228.12,-179.5"/>
<text text-anchor="middle" x="257.5" y="-192.45" font-family="Times,serif" font-size="14.00">func c()</text>
<polyline fill="none" stroke="black" points="286.88,-179.5 286.88,-215.5"/>
<text text-anchor="middle" x="317.75" y="-192.45" font-family="Times,serif" font-size="14.00">uncalled</text>
<polyline fill="none" stroke="black" points="348.62,-179.5 348.62,-215.5"/>
<text text-anchor="middle" x="389.25" y="-192.45" font-family="Times,serif" font-size="14.00">unreachable</text>
</g>
<!-- func_d -->
<g id="node5" class="node">
<title>func_d</title>
<polygon fill="lightgrey" stroke="black" points="227.5,-90 227.5,-126 416.5,-126 416.5,-90 227.5,-90"/>
<text text-anchor="middle" x="257.25" y="-102.95" font-family="Times,serif" font-size="14.00">func d()</text>
<polyline fill="none" stroke="black" points="287,-90 287,-126"/>
<text text-anchor="middle" x="311.12" y="-102.95" font-family="Times,serif" font-size="14.00">called</text>
<polyline fill="none" stroke="black" points="335.25,-90 335.25,-126"/>
<text text-anchor="middle" x="375.88" y="-102.95" font-family="Times,serif" font-size="14.00">unreachable</text>
</g>
<!-- func_c&#45;&gt;func_d -->
<g id="edge3" class="edge">
<title>func_c:f0&#45;&gt;func_d:f0</title>
<path fill="none" stroke="black" d="M257.5,-179C257.5,-160.04 257.33,-152.64 257.27,-138.01"/>
<polygon fill="black" stroke="black" points="260.77,-138.01 257.25,-128.01 253.77,-138.02 260.77,-138.01"/>
<text text-anchor="middle" x="269.81" y="-147.7" font-family="Times,serif" font-size="14.00">calls</text>
</g>
</g>
</svg>
